<?xml version="1.0" encoding="UTF-8" standalone="no"?>
<svg width="177.8mm" height="115.358mm"
 viewBox="0 0 5376 3488"
 xmlns="http://www.w3.org/2000/svg" xmlns:xlink="http://www.w3.org/1999/xlink"  version="1.2" baseProfile="tiny">
<title>Qt SVG Document</title>
<desc>Generated with Qt</desc>
<defs>
</defs>
<g fill="none" stroke="black" stroke-width="1" fill-rule="evenodd" stroke-linecap="square" stroke-linejoin="bevel" >

<g fill="#ffffff" fill-opacity="1" stroke="#000000" stroke-opacity="1" stroke-width="1" stroke-linecap="butt" stroke-linejoin="miter" stroke-miterlimit="4.97494" transform="matrix(1,0,0,1,0,0)"
font-family="MS Shell Dlg 2" font-size="88" font-weight="400" font-style="normal" 
>
</g>

<g fill="#ffffff" fill-opacity="1" stroke="#000000" stroke-opacity="1" stroke-width="11" stroke-linecap="butt" stroke-linejoin="miter" stroke-miterlimit="4.97494" transform="matrix(1,0,0,1,0,0)"
font-family="MS Shell Dlg 2" font-size="88" font-weight="400" font-style="normal" 
>
<polyline fill="none" vector-effect="none" points="634.5,128 634.5,3084 " />
</g>

<g fill="#ffffff" fill-opacity="1" stroke="#000000" stroke-opacity="1" stroke-width="1" stroke-linecap="butt" stroke-linejoin="miter" stroke-miterlimit="4.97494" transform="matrix(1,0,0,1,0,0)"
font-family="MS Shell Dlg 2" font-size="88" font-weight="400" font-style="normal" 
>
</g>

<g fill="#ffffff" fill-opacity="1" stroke="#000000" stroke-opacity="1" stroke-width="11" stroke-linecap="butt" stroke-linejoin="miter" stroke-miterlimit="4.97494" transform="matrix(1,0,0,1,0,0)"
font-family="MS Shell Dlg 2" font-size="88" font-weight="400" font-style="normal" 
>
<polyline fill="none" vector-effect="none" points="555,722.5 640,722.5 " />
</g>

<g fill="#ffffff" fill-opacity="1" stroke="#000000" stroke-opacity="1" stroke-width="1" stroke-linecap="butt" stroke-linejoin="miter" stroke-miterlimit="4.97494" transform="matrix(1,0,0,1,0,0)"
font-family="MS Shell Dlg 2" font-size="88" font-weight="400" font-style="normal" 
>
</g>

<g fill="#ffffff" fill-opacity="1" stroke="#000000" stroke-opacity="1" stroke-width="1" stroke-linecap="butt" stroke-linejoin="miter" stroke-miterlimit="4.97494" transform="matrix(1,0,0,1,286,658)"
font-family="Tahoma" font-size="106" font-weight="400" font-style="normal" 
>
<text fill="#000000" fill-opacity="1" stroke="none" xml:space="preserve" x="0" y="105" font-family="Tahoma" font-size="106" font-weight="400" font-style="normal" 
 >6000</text>
</g>

<g fill="#ffffff" fill-opacity="1" stroke="#000000" stroke-opacity="1" stroke-width="1" stroke-linecap="butt" stroke-linejoin="miter" stroke-miterlimit="4.97494" transform="matrix(1,0,0,1,0,0)"
font-family="MS Shell Dlg 2" font-size="88" font-weight="400" font-style="normal" 
>
</g>

<g fill="#ffffff" fill-opacity="1" stroke="#000000" stroke-opacity="1" stroke-width="11" stroke-linecap="butt" stroke-linejoin="miter" stroke-miterlimit="4.97494" transform="matrix(1,0,0,1,0,0)"
font-family="MS Shell Dlg 2" font-size="88" font-weight="400" font-style="normal" 
>
<polyline fill="none" vector-effect="none" points="555,1323.5 640,1323.5 " />
</g>

<g fill="#ffffff" fill-opacity="1" stroke="#000000" stroke-opacity="1" stroke-width="1" stroke-linecap="butt" stroke-linejoin="miter" stroke-miterlimit="4.97494" transform="matrix(1,0,0,1,0,0)"
font-family="MS Shell Dlg 2" font-size="88" font-weight="400" font-style="normal" 
>
</g>

<g fill="#ffffff" fill-opacity="1" stroke="#000000" stroke-opacity="1" stroke-width="1" stroke-linecap="butt" stroke-linejoin="miter" stroke-miterlimit="4.97494" transform="matrix(1,0,0,1,286,1259)"
font-family="Tahoma" font-size="106" font-weight="400" font-style="normal" 
>
<text fill="#000000" fill-opacity="1" stroke="none" xml:space="preserve" x="0" y="105" font-family="Tahoma" font-size="106" font-weight="400" font-style="normal" 
 >4000</text>
</g>

<g fill="#ffffff" fill-opacity="1" stroke="#000000" stroke-opacity="1" stroke-width="1" stroke-linecap="butt" stroke-linejoin="miter" stroke-miterlimit="4.97494" transform="matrix(1,0,0,1,0,0)"
font-family="MS Shell Dlg 2" font-size="88" font-weight="400" font-style="normal" 
>
</g>

<g fill="#ffffff" fill-opacity="1" stroke="#000000" stroke-opacity="1" stroke-width="11" stroke-linecap="butt" stroke-linejoin="miter" stroke-miterlimit="4.97494" transform="matrix(1,0,0,1,0,0)"
font-family="MS Shell Dlg 2" font-size="88" font-weight="400" font-style="normal" 
>
<polyline fill="none" vector-effect="none" points="555,1924.5 640,1924.5 " />
</g>

<g fill="#ffffff" fill-opacity="1" stroke="#000000" stroke-opacity="1" stroke-width="1" stroke-linecap="butt" stroke-linejoin="miter" stroke-miterlimit="4.97494" transform="matrix(1,0,0,1,0,0)"
font-family="MS Shell Dlg 2" font-size="88" font-weight="400" font-style="normal" 
>
</g>

<g fill="#ffffff" fill-opacity="1" stroke="#000000" stroke-opacity="1" stroke-width="1" stroke-linecap="butt" stroke-linejoin="miter" stroke-miterlimit="4.97494" transform="matrix(1,0,0,1,286,1860)"
font-family="Tahoma" font-size="106" font-weight="400" font-style="normal" 
>
<text fill="#000000" fill-opacity="1" stroke="none" xml:space="preserve" x="0" y="105" font-family="Tahoma" font-size="106" font-weight="400" font-style="normal" 
 >2000</text>
</g>

<g fill="#ffffff" fill-opacity="1" stroke="#000000" stroke-opacity="1" stroke-width="1" stroke-linecap="butt" stroke-linejoin="miter" stroke-miterlimit="4.97494" transform="matrix(1,0,0,1,0,0)"
font-family="MS Shell Dlg 2" font-size="88" font-weight="400" font-style="normal" 
>
</g>

<g fill="#ffffff" fill-opacity="1" stroke="#000000" stroke-opacity="1" stroke-width="11" stroke-linecap="butt" stroke-linejoin="miter" stroke-miterlimit="4.97494" transform="matrix(1,0,0,1,0,0)"
font-family="MS Shell Dlg 2" font-size="88" font-weight="400" font-style="normal" 
>
<polyline fill="none" vector-effect="none" points="555,2525.5 640,2525.5 " />
</g>

<g fill="#ffffff" fill-opacity="1" stroke="#000000" stroke-opacity="1" stroke-width="1" stroke-linecap="butt" stroke-linejoin="miter" stroke-miterlimit="4.97494" transform="matrix(1,0,0,1,0,0)"
font-family="MS Shell Dlg 2" font-size="88" font-weight="400" font-style="normal" 
>
</g>

<g fill="#ffffff" fill-opacity="1" stroke="#000000" stroke-opacity="1" stroke-width="1" stroke-linecap="butt" stroke-linejoin="miter" stroke-miterlimit="4.97494" transform="matrix(1,0,0,1,460,2461)"
font-family="Tahoma" font-size="106" font-weight="400" font-style="normal" 
>
<text fill="#000000" fill-opacity="1" stroke="none" xml:space="preserve" x="0" y="105" font-family="Tahoma" font-size="106" font-weight="400" font-style="normal" 
 >0</text>
</g>

<g fill="#ffffff" fill-opacity="1" stroke="#000000" stroke-opacity="1" stroke-width="1" stroke-linecap="butt" stroke-linejoin="miter" stroke-miterlimit="4.97494" transform="matrix(1,0,0,1,0,0)"
font-family="MS Shell Dlg 2" font-size="88" font-weight="400" font-style="normal" 
>
</g>

<g fill="#ffffff" fill-opacity="1" stroke="#000000" stroke-opacity="1" stroke-width="1" stroke-linecap="butt" stroke-linejoin="miter" stroke-miterlimit="4.97494" transform="matrix(1.61554e-15,-1,1,1.61554e-15,-5.6221e-13,1949)"
font-family="Tahoma" font-size="106" font-weight="400" font-style="normal" 
>
<text fill="#000000" fill-opacity="1" stroke="none" xml:space="preserve" x="0" y="105" font-family="Tahoma" font-size="106" font-weight="400" font-style="normal" 
 >Intensity (a.u.)</text>
</g>

<g fill="#ffffff" fill-opacity="1" stroke="#000000" stroke-opacity="1" stroke-width="1" stroke-linecap="butt" stroke-linejoin="miter" stroke-miterlimit="4.97494" transform="matrix(1,0,0,1,0,0)"
font-family="MS Shell Dlg 2" font-size="88" font-weight="400" font-style="normal" 
>
</g>

<g fill="#ffffff" fill-opacity="1" stroke="#000000" stroke-opacity="1" stroke-width="11" stroke-linecap="butt" stroke-linejoin="miter" stroke-miterlimit="4.97494" transform="matrix(1,0,0,1,0,0)"
font-family="MS Shell Dlg 2" font-size="88" font-weight="400" font-style="normal" 
>
<polyline fill="none" vector-effect="none" points="629,3089.5 5134,3089.5 " />
</g>

<g fill="#ffffff" fill-opacity="1" stroke="#000000" stroke-opacity="1" stroke-width="1" stroke-linecap="butt" stroke-linejoin="miter" stroke-miterlimit="4.97494" transform="matrix(1,0,0,1,0,0)"
font-family="MS Shell Dlg 2" font-size="88" font-weight="400" font-style="normal" 
>
</g>

<g fill="#ffffff" fill-opacity="1" stroke="#000000" stroke-opacity="1" stroke-width="11" stroke-linecap="butt" stroke-linejoin="miter" stroke-miterlimit="4.97494" transform="matrix(1,0,0,1,0,0)"
font-family="MS Shell Dlg 2" font-size="88" font-weight="400" font-style="normal" 
>
<polyline fill="none" vector-effect="none" points="5134.5,3169 5134.5,3084 " />
</g>

<g fill="#ffffff" fill-opacity="1" stroke="#000000" stroke-opacity="1" stroke-width="1" stroke-linecap="butt" stroke-linejoin="miter" stroke-miterlimit="4.97494" transform="matrix(1,0,0,1,0,0)"
font-family="MS Shell Dlg 2" font-size="88" font-weight="400" font-style="normal" 
>
</g>

<g fill="#ffffff" fill-opacity="1" stroke="#000000" stroke-opacity="1" stroke-width="1" stroke-linecap="butt" stroke-linejoin="miter" stroke-miterlimit="4.97494" transform="matrix(1,0,0,1,5047,3211)"
font-family="Tahoma" font-size="106" font-weight="400" font-style="normal" 
>
<text fill="#000000" fill-opacity="1" stroke="none" xml:space="preserve" x="0" y="105" font-family="Tahoma" font-size="106" font-weight="400" font-style="normal" 
 >650</text>
</g>

<g fill="#ffffff" fill-opacity="1" stroke="#000000" stroke-opacity="1" stroke-width="1" stroke-linecap="butt" stroke-linejoin="miter" stroke-miterlimit="4.97494" transform="matrix(1,0,0,1,0,0)"
font-family="MS Shell Dlg 2" font-size="88" font-weight="400" font-style="normal" 
>
</g>

<g fill="#ffffff" fill-opacity="1" stroke="#000000" stroke-opacity="1" stroke-width="11" stroke-linecap="butt" stroke-linejoin="miter" stroke-miterlimit="4.97494" transform="matrix(1,0,0,1,0,0)"
font-family="MS Shell Dlg 2" font-size="88" font-weight="400" font-style="normal" 
>
<polyline fill="none" vector-effect="none" points="4013.5,3169 4013.5,3084 " />
</g>

<g fill="#ffffff" fill-opacity="1" stroke="#000000" stroke-opacity="1" stroke-width="1" stroke-linecap="butt" stroke-linejoin="miter" stroke-miterlimit="4.97494" transform="matrix(1,0,0,1,0,0)"
font-family="MS Shell Dlg 2" font-size="88" font-weight="400" font-style="normal" 
>
</g>

<g fill="#ffffff" fill-opacity="1" stroke="#000000" stroke-opacity="1" stroke-width="1" stroke-linecap="butt" stroke-linejoin="miter" stroke-miterlimit="4.97494" transform="matrix(1,0,0,1,3926,3211)"
font-family="Tahoma" font-size="106" font-weight="400" font-style="normal" 
>
<text fill="#000000" fill-opacity="1" stroke="none" xml:space="preserve" x="0" y="105" font-family="Tahoma" font-size="106" font-weight="400" font-style="normal" 
 >600</text>
</g>

<g fill="#ffffff" fill-opacity="1" stroke="#000000" stroke-opacity="1" stroke-width="1" stroke-linecap="butt" stroke-linejoin="miter" stroke-miterlimit="4.97494" transform="matrix(1,0,0,1,0,0)"
font-family="MS Shell Dlg 2" font-size="88" font-weight="400" font-style="normal" 
>
</g>

<g fill="#ffffff" fill-opacity="1" stroke="#000000" stroke-opacity="1" stroke-width="11" stroke-linecap="butt" stroke-linejoin="miter" stroke-miterlimit="4.97494" transform="matrix(1,0,0,1,0,0)"
font-family="MS Shell Dlg 2" font-size="88" font-weight="400" font-style="normal" 
>
<polyline fill="none" vector-effect="none" points="2892.5,3169 2892.5,3084 " />
</g>

<g fill="#ffffff" fill-opacity="1" stroke="#000000" stroke-opacity="1" stroke-width="1" stroke-linecap="butt" stroke-linejoin="miter" stroke-miterlimit="4.97494" transform="matrix(1,0,0,1,0,0)"
font-family="MS Shell Dlg 2" font-size="88" font-weight="400" font-style="normal" 
>
</g>

<g fill="#ffffff" fill-opacity="1" stroke="#000000" stroke-opacity="1" stroke-width="1" stroke-linecap="butt" stroke-linejoin="miter" stroke-miterlimit="4.97494" transform="matrix(1,0,0,1,2805,3211)"
font-family="Tahoma" font-size="106" font-weight="400" font-style="normal" 
>
<text fill="#000000" fill-opacity="1" stroke="none" xml:space="preserve" x="0" y="105" font-family="Tahoma" font-size="106" font-weight="400" font-style="normal" 
 >550</text>
</g>

<g fill="#ffffff" fill-opacity="1" stroke="#000000" stroke-opacity="1" stroke-width="1" stroke-linecap="butt" stroke-linejoin="miter" stroke-miterlimit="4.97494" transform="matrix(1,0,0,1,0,0)"
font-family="MS Shell Dlg 2" font-size="88" font-weight="400" font-style="normal" 
>
</g>

<g fill="#ffffff" fill-opacity="1" stroke="#000000" stroke-opacity="1" stroke-width="11" stroke-linecap="butt" stroke-linejoin="miter" stroke-miterlimit="4.97494" transform="matrix(1,0,0,1,0,0)"
font-family="MS Shell Dlg 2" font-size="88" font-weight="400" font-style="normal" 
>
<polyline fill="none" vector-effect="none" points="1771.5,3169 1771.5,3084 " />
</g>

<g fill="#ffffff" fill-opacity="1" stroke="#000000" stroke-opacity="1" stroke-width="1" stroke-linecap="butt" stroke-linejoin="miter" stroke-miterlimit="4.97494" transform="matrix(1,0,0,1,0,0)"
font-family="MS Shell Dlg 2" font-size="88" font-weight="400" font-style="normal" 
>
</g>

<g fill="#ffffff" fill-opacity="1" stroke="#000000" stroke-opacity="1" stroke-width="1" stroke-linecap="butt" stroke-linejoin="miter" stroke-miterlimit="4.97494" transform="matrix(1,0,0,1,1684,3211)"
font-family="Tahoma" font-size="106" font-weight="400" font-style="normal" 
>
<text fill="#000000" fill-opacity="1" stroke="none" xml:space="preserve" x="0" y="105" font-family="Tahoma" font-size="106" font-weight="400" font-style="normal" 
 >500</text>
</g>

<g fill="#ffffff" fill-opacity="1" stroke="#000000" stroke-opacity="1" stroke-width="1" stroke-linecap="butt" stroke-linejoin="miter" stroke-miterlimit="4.97494" transform="matrix(1,0,0,1,0,0)"
font-family="MS Shell Dlg 2" font-size="88" font-weight="400" font-style="normal" 
>
</g>

<g fill="#ffffff" fill-opacity="1" stroke="#000000" stroke-opacity="1" stroke-width="11" stroke-linecap="butt" stroke-linejoin="miter" stroke-miterlimit="4.97494" transform="matrix(1,0,0,1,0,0)"
font-family="MS Shell Dlg 2" font-size="88" font-weight="400" font-style="normal" 
>
<polyline fill="none" vector-effect="none" points="650.5,3169 650.5,3084 " />
</g>

<g fill="#ffffff" fill-opacity="1" stroke="#000000" stroke-opacity="1" stroke-width="1" stroke-linecap="butt" stroke-linejoin="miter" stroke-miterlimit="4.97494" transform="matrix(1,0,0,1,0,0)"
font-family="MS Shell Dlg 2" font-size="88" font-weight="400" font-style="normal" 
>
</g>

<g fill="#ffffff" fill-opacity="1" stroke="#000000" stroke-opacity="1" stroke-width="1" stroke-linecap="butt" stroke-linejoin="miter" stroke-miterlimit="4.97494" transform="matrix(1,0,0,1,563,3211)"
font-family="Tahoma" font-size="106" font-weight="400" font-style="normal" 
>
<text fill="#000000" fill-opacity="1" stroke="none" xml:space="preserve" x="0" y="105" font-family="Tahoma" font-size="106" font-weight="400" font-style="normal" 
 >450</text>
</g>

<g fill="#ffffff" fill-opacity="1" stroke="#000000" stroke-opacity="1" stroke-width="1" stroke-linecap="butt" stroke-linejoin="miter" stroke-miterlimit="4.97494" transform="matrix(1,0,0,1,0,0)"
font-family="MS Shell Dlg 2" font-size="88" font-weight="400" font-style="normal" 
>
</g>

<g fill="#ffffff" fill-opacity="1" stroke="#000000" stroke-opacity="1" stroke-width="1" stroke-linecap="butt" stroke-linejoin="miter" stroke-miterlimit="4.97494" transform="matrix(1,0,0,1,2487,3360)"
font-family="Tahoma" font-size="106" font-weight="400" font-style="normal" 
>
<text fill="#000000" fill-opacity="1" stroke="none" xml:space="preserve" x="0" y="105" font-family="Tahoma" font-size="106" font-weight="400" font-style="normal" 
 >Wavelength (nm)</text>
</g>

<g fill="#ffffff" fill-opacity="1" stroke="#000000" stroke-opacity="1" stroke-width="1" stroke-linecap="butt" stroke-linejoin="miter" stroke-miterlimit="4.97494" transform="matrix(1,0,0,1,0,0)"
font-family="MS Shell Dlg 2" font-size="88" font-weight="400" font-style="normal" 
>
</g>

<g fill="#ffffff" fill-opacity="1" stroke="#000000" stroke-opacity="1" stroke-width="1" stroke-linecap="butt" stroke-linejoin="miter" stroke-miterlimit="4.97494" transform="matrix(1,0,0,1,0,0)"
font-family="MS Shell Dlg 2" font-size="88" font-weight="400" font-style="normal" 
>
</g>

<g fill="#ffffff" fill-opacity="1" stroke="#ff0000" stroke-opacity="1" stroke-width="1" stroke-linecap="butt" stroke-linejoin="bevel" transform="matrix(1,0,0,1,0,0)"
font-family="MS Shell Dlg 2" font-size="88" font-weight="400" font-style="normal" 
>
</g>

<g fill="none" stroke="#ff0000" stroke-opacity="1" stroke-width="11" stroke-linecap="butt" stroke-linejoin="bevel" transform="matrix(1,0,0,1,0,0)"
font-family="MS Shell Dlg 2" font-size="88" font-weight="400" font-style="normal" 
>
<path vector-effect="none" fill-rule="nonzero" d="M650,2815 L650,2814 L658,2828 L666,2853 L673,2832 L681,2777 L689,2828 L696,2828 L704,2851 L712,2798 L719,2851 L727,2825 L734,2843 L742,2840 L750,2844 L757,2817 L765,2869 L773,2862 L780,2878 L788,2831 L795,2827 L803,2798 L811,2832 L818,2844 L826,2814 L833,2799 L841,2805 L849,2805 L856,2802 L864,2833 L871,2771 L879,2814 L886,2767 L894,2793 L902,2789 L909,2802 L917,2828 L924,2783 L932,2771 L939,2819 L947,2758 L955,2796 L962,2797 L970,2766 L977,2833 L985,2780 L992,2779 L1000,2813 L1008,2798 L1015,2828 L1023,2755 L1030,2767 L1038,2756 L1045,2742 L1053,2766 L1060,2801 L1068,2768 L1075,2736 L1083,2743 L1090,2771 L1098,2751 L1105,2773 L1113,2766 L1121,2775 L1128,2705 L1136,2745 L1143,2698 L1151,2763 L1158,2765 L1166,2715 L1173,2730 L1181,2687 L1188,2704 L1196,2739 L1203,2730 L1211,2704 L1218,2722 L1226,2686 L1233,2720 L1241,2678 L1248,2674 L1256,2673 L1263,2668 L1271,2682 L1278,2633 L1286,2641 L1293,2663 L1300,2618 L1308,2629 L1315,2687 L1323,2593 L1330,2667 L1338,2614 L1345,2611 L1353,2582 L1360,2578 L1368,2605 L1375,2600 L1383,2568 L1390,2548 L1397,2553 L1405,2547 L1412,2562 L1420,2550 L1427,2543 L1435,2535 L1442,2553 L1450,2546 L1457,2500 L1464,2511 L1472,2510 L1479,2490 L1487,2460 L1494,2452 L1502,2397 L1509,2421 L1516,2430 L1524,2369 L1531,2372 L1539,2369 L1546,2319 L1553,2293 L1561,2337 L1568,2259 L1576,2245 L1583,2208 L1590,2162 L1598,2190 L1605,2144 L1613,2103 L1620,1998 L1627,2022 L1635,1932 L1642,1933 L1650,1895 L1657,1931 L1664,1846 L1672,1810 L1679,1785 L1686,1738 L1694,1739 L1701,1705 L1709,1626 L1716,1655 L1723,1657 L1731,1581 L1738,1600 L1745,1598 L1753,1531 L1760,1522 L1767,1481 L1775,1496 L1782,1497 L1790,1468 L1797,1523 L1804,1452 L1812,1479 L1819,1431 L1826,1392 L1834,1416 L1841,1417 L1848,1344 L1856,1292 L1863,1371 L1870,1352 L1878,1279 L1885,1298 L1892,1273 L1900,1197 L1907,1257 L1914,1200 L1921,1230 L1929,1210 L1936,1200 L1943,1188 L1951,1160 L1958,1197 L1965,1290 L1973,1197 L1980,1264 L1987,1236 L1994,1263 L2002,1245 L2009,1213 L2016,1262 L2024,1292 L2031,1234 L2038,1271 L2045,1270 L2053,1312 L2060,1223 L2067,1242 L2075,1251 L2082,1223 L2089,1160 L2096,1149 L2104,1098 L2111,1141 L2118,1125 L2125,1092 L2133,1085 L2140,1061 L2147,1020 L2154,978 L2162,1019 L2169,956 L2176,953 L2183,920 L2191,897 L2198,827 L2205,864 L2212,883 L2220,865 L2227,930 L2234,851 L2241,873 L2249,900 L2256,849 L2263,866 L2270,882 L2277,848 L2285,884 L2292,894 L2299,847 L2306,852 L2314,876 L2321,897 L2328,797 L2335,792 L2342,787 L2350,774 L2357,790 L2364,743 L2371,740 L2378,679 L2386,697 L2393,674 L2400,562 L2407,589 L2414,527 L2421,538 L2429,436 L2436,433 L2443,350 L2450,322 L2457,312 L2465,312 L2472,261 L2479,223 L2486,187 L2493,130 L2500,187 L2508,224 L2515,158 L2522,128 L2529,199 L2536,241 L2543,190 L2550,284 L2558,302 L2565,380 L2572,411 L2579,436 L2586,506 L2593,543 L2600,604 L2608,651 L2615,751 L2622,735 L2629,800 L2636,923 L2643,858 L2650,975 L2657,1016 L2665,1025 L2672,1159 L2679,1118 L2686,1170 L2693,1252 L2700,1296 L2707,1353 L2714,1421 L2721,1430 L2729,1426 L2736,1500 L2743,1474 L2750,1462 L2757,1519 L2764,1623 L2771,1604 L2778,1645 L2785,1677 L2792,1688 L2799,1680 L2807,1705 L2814,1721 L2821,1719 L2828,1759 L2835,1761 L2842,1812 L2849,1854 L2856,1813 L2863,1846 L2870,1921 L2877,1864 L2884,1917 L2891,1922 L2898,1873 L2906,1883 L2913,1889 L2920,1978 L2927,1971 L2934,1941 L2941,1952 L2948,1986 L2955,1945 L2962,1993 L2969,1945 L2976,1991 L2983,1986 L2990,1977 L2997,2017 L3004,1979 L3011,2007 L3018,2004 L3025,2013 L3032,2025 L3039,2007 L3046,2077 L3053,2009 L3060,2009 L3067,2016 L3074,2069 L3081,2029 L3088,2045 L3095,2092 L3102,2022 L3109,2035 L3116,2125 L3123,2038 L3130,2095 L3137,2064 L3144,2061 L3151,2126 L3158,2095 L3165,2067 L3172,2107 L3179,2131 L3186,2138 L3193,2126 L3200,2110 L3207,2159 L3214,2105 L3221,2099 L3228,2131 L3235,2122 L3242,2147 L3249,2141 L3256,2174 L3263,2184 L3270,2160 L3277,2160 L3284,2161 L3291,2193 L3298,2209 L3305,2162 L3312,2181 L3319,2176 L3326,2175 L3333,2222 L3339,2182 L3346,2192 L3353,2207 L3360,2248 L3367,2223 L3374,2301 L3381,2227 L3388,2235 L3395,2266 L3402,2255 L3409,2218 L3416,2245 L3423,2217 L3430,2266 L3436,2269 L3443,2229 L3450,2273 L3457,2301 L3464,2245 L3471,2270 L3478,2296 L3485,2271 L3492,2299 L3499,2284 L3506,2321 L3512,2316 L3519,2278 L3526,2308 L3533,2281 L3540,2291 L3547,2340 L3554,2331 L3561,2318 L3568,2341 L3574,2331 L3581,2303 L3588,2307 L3595,2318 L3602,2330 L3609,2309 L3616,2336 L3623,2367 L3629,2329 L3636,2327 L3643,2339 L3650,2351 L3657,2353 L3664,2342 L3671,2424 L3678,2475 L3684,2364 L3691,2363 L3698,2368 L3705,2326 L3712,2331 L3719,2386 L3725,2339 L3732,2364 L3739,2414 L3746,2385 L3753,2338 L3760,2353 L3766,2339 L3773,2411 L3780,2388 L3787,2343 L3794,2340 L3801,2402 L3807,2384 L3814,2412 L3821,2379 L3828,2360 L3835,2371 L3841,2389 L3848,2363 L3855,2415 L3862,2404 L3869,2404 L3876,2474 L3882,2427 L3889,2401 L3896,2377 L3903,2438 L3910,2442 L3916,2426 L3923,2478 L3930,2446 L3937,2448 L3943,2471 L3950,2454 L3957,2437 L3964,2468 L3971,2407 L3977,2521 L3984,2540 L3991,2487 L3998,2456 L4004,2448 L4011,2476 L4018,2517 L4025,2451 L4032,2498 L4038,2458 L4045,2479 L4052,2527 L4059,2505 L4065,2472 L4072,2494 L4079,2541 L4086,2488 L4092,2507 L4099,2504 L4106,2533 L4113,2567 L4119,2567 L4126,2539 L4133,2571 L4139,2522 L4146,2514 L4153,2522 L4160,2523 L4166,2542 L4173,2530 L4180,2544 L4187,2564 L4193,2573 L4200,2570 L4207,2583 L4213,2561 L4220,2570 L4227,2585 L4234,2551 L4240,2604 L4247,2591 L4254,2602 L4260,2586 L4267,2546 L4274,2622 L4281,2560 L4287,2587 L4294,2560 L4301,2584 L4307,2591 L4314,2624 L4321,2646 L4327,2612 L4334,2643 L4341,2602 L4347,2596 L4354,2684 L4361,2644 L4367,2615 L4374,2647 L4381,2629 L4387,2620 L4394,2646 L4401,2646 L4407,2627 L4414,2656 L4421,2643 L4427,2681 L4434,2653 L4441,2671 L4447,2637 L4454,2638 L4461,2640 L4467,2655 L4474,2651 L4481,2664 L4487,2646 L4494,2694 L4501,2636 L4507,2647 L4514,2660 L4520,2695 L4527,2693 L4534,2703 L4540,2684 L4547,2660 L4554,2682 L4560,2635 L4567,2673 L4574,2702 L4580,2709 L4587,2666 L4593,2700 L4600,2677 L4607,2681 L4613,2671 L4620,2693 L4626,2692 L4633,2764 L4640,2694 L4646,2713 L4653,2723 L4659,2699 L4666,2693 L4673,2685 L4679,2703 L4686,2705 L4692,2717 L4699,2727 L4706,2713 L4712,2697 L4719,2699 L4725,2699 L4732,2785 L4739,2716 L4745,2733 L4752,2700 L4758,2731 L4765,2732 L4771,2752 L4778,2759 L4785,2754 L4791,2704 L4798,2714 L4804,2753 L4811,2719 L4817,2768 L4824,2713 L4830,2709 L4837,2769 L4844,2734 L4850,2716 L4857,2758 L4863,2711 L4870,2710 L4876,2748 L4883,2704 L4889,2719 L4896,2759 L4902,2811 L4909,2751 L4916,2751 L4922,2740 L4929,2736 L4935,2738 L4942,2750 L4948,2764 L4955,2760 L4961,2739 L4968,2763 L4974,2762 L4981,2711 L4987,2704 L4994,2779 L5000,2738 L5007,2745 L5013,2714 L5020,2745 L5026,2714 L5033,2786 L5039,2759 L5046,2743 L5052,2739 L5059,2723 L5065,2712 L5072,2760 L5078,2744 L5085,2802 L5091,2736 L5098,2761 L5104,2721 L5111,2753 L5117,2820 L5124,2747 L5130,2791 L5134,2758"/>
</g>

<g fill="#ffffff" fill-opacity="1" stroke="#ff0000" stroke-opacity="1" stroke-width="1" stroke-linecap="butt" stroke-linejoin="bevel" transform="matrix(1,0,0,1,0,0)"
font-family="MS Shell Dlg 2" font-size="88" font-weight="400" font-style="normal" 
>
</g>

<g fill="#ffffff" fill-opacity="1" stroke="#000000" stroke-opacity="1" stroke-width="1" stroke-linecap="butt" stroke-linejoin="miter" stroke-miterlimit="4.97494" transform="matrix(1,0,0,1,0,0)"
font-family="MS Shell Dlg 2" font-size="88" font-weight="400" font-style="normal" 
>
</g>

<g fill="#ffffff" fill-opacity="1" stroke="#000000" stroke-opacity="1" stroke-width="1" stroke-linecap="butt" stroke-linejoin="miter" stroke-miterlimit="4.97494" transform="matrix(1,0,0,1,0,0)"
font-family="MS Shell Dlg 2" font-size="88" font-weight="400" font-style="normal" 
>
</g>
</g>
</svg>
