<?xml version="1.0" encoding="UTF-8" standalone="no"?>
<!-- Created with Inkscape (http://www.inkscape.org/) -->

<svg
   xmlns:dc="http://purl.org/dc/elements/1.1/"
   xmlns:cc="http://creativecommons.org/ns#"
   xmlns:rdf="http://www.w3.org/1999/02/22-rdf-syntax-ns#"
   xmlns:svg="http://www.w3.org/2000/svg"
   xmlns="http://www.w3.org/2000/svg"
   xmlns:sodipodi="http://sodipodi.sourceforge.net/DTD/sodipodi-0.dtd"
   xmlns:inkscape="http://www.inkscape.org/namespaces/inkscape"
   sodipodi:docname="schematic.svg"
   inkscape:version="0.92.4 5da689c313, 2019-01-14"
   id="svg8"
   version="1.1"
   viewBox="0 0 210 297"
   height="297mm"
   width="210mm"
   inkscape:export-filename="/home/ben/Documents/research/src_poster/images/schematic.png"
   inkscape:export-xdpi="200"
   inkscape:export-ydpi="200">
  <defs
     id="defs2">
    <meshgradient
       inkscape:collect="always"
       id="meshgradient4692"
       gradientUnits="userSpaceOnUse"
       x="42.333332"
       y="270.54166"
       gradientTransform="matrix(1,0,0,0.99999856,0,4.2057788e-4)">
      <meshrow
         id="meshrow4694">
        <meshpatch
           id="meshpatch4696">
          <stop
             path="c 45.8611,0  91.7222,0  137.583,0"
             style="stop-color:#ffffff;stop-opacity:1"
             id="stop4698" />
          <stop
             path="c 0,7.05556  0,14.1111  0,21.1667"
             style="stop-color:#666666;stop-opacity:1"
             id="stop4700" />
          <stop
             path="c -45.8611,0  -91.7222,0  -137.583,0"
             style="stop-color:#ffffff;stop-opacity:1"
             id="stop4702" />
          <stop
             path="c 0,-7.05556  0,-14.1111  0,-21.1667"
             style="stop-color:#666666;stop-opacity:1"
             id="stop4704" />
        </meshpatch>
      </meshrow>
    </meshgradient>
    <meshgradient
       inkscape:collect="always"
       id="meshgradient4706"
       gradientUnits="userSpaceOnUse"
       x="42.333336"
       y="175.77249">
      <meshrow
         id="meshrow4708">
        <meshpatch
           id="meshpatch4710">
          <stop
             path="c 45.8611,0  91.7222,0  137.583,0"
             style="stop-color:#ffffff;stop-opacity:1"
             id="stop4712" />
          <stop
             path="c 0,5.13139  0,10.2628  0,15.3942"
             style="stop-color:#666666;stop-opacity:1"
             id="stop4714" />
          <stop
             path="c -45.8611,0  -91.7222,0  -137.583,0"
             style="stop-color:#ffffff;stop-opacity:1"
             id="stop4716" />
          <stop
             path="c 0,-5.13139  0,-10.2628  0,-15.3942"
             style="stop-color:#666666;stop-opacity:1"
             id="stop4718" />
        </meshpatch>
      </meshrow>
    </meshgradient>
    <meshgradient
       inkscape:collect="always"
       id="meshgradient4720"
       gradientUnits="userSpaceOnUse"
       x="42.333328"
       y="80.522484"
       gradientTransform="translate(0,1.0583333)">
      <meshrow
         id="meshrow4722">
        <meshpatch
           id="meshpatch4724">
          <stop
             path="c 45.8611,0  91.7222,0  137.583,0"
             style="stop-color:#ffffff;stop-opacity:1"
             id="stop4726" />
          <stop
             path="c 0,5.13139  0,10.2628  0,15.3942"
             style="stop-color:#666666;stop-opacity:1"
             id="stop4728" />
          <stop
             path="c -45.8611,0  -91.7222,0  -137.583,0"
             style="stop-color:#ffffff;stop-opacity:1"
             id="stop4730" />
          <stop
             path="c 0,-5.13139  0,-10.2628  0,-15.3942"
             style="stop-color:#666666;stop-opacity:1"
             id="stop4732" />
        </meshpatch>
      </meshrow>
    </meshgradient>
  </defs>
  <sodipodi:namedview
     id="base"
     pagecolor="#ffffff"
     bordercolor="#666666"
     borderopacity="1.0"
     inkscape:pageopacity="0.0"
     inkscape:pageshadow="2"
     inkscape:zoom="0.49497475"
     inkscape:cx="275.0406"
     inkscape:cy="401.596"
     inkscape:document-units="mm"
     inkscape:current-layer="layer1"
     showgrid="false"
     inkscape:window-width="1366"
     inkscape:window-height="713"
     inkscape:window-x="0"
     inkscape:window-y="26"
     inkscape:window-maximized="1"
     inkscape:snap-object-midpoints="false">
    <inkscape:grid
       type="xygrid"
       id="grid10" />
  </sodipodi:namedview>
  <metadata
     id="metadata5">
    <rdf:RDF>
      <cc:Work
         rdf:about="">
        <dc:format>image/svg+xml</dc:format>
        <dc:type
           rdf:resource="http://purl.org/dc/dcmitype/StillImage" />
        <dc:title />
      </cc:Work>
    </rdf:RDF>
  </metadata>
  <g
     inkscape:label="device"
     inkscape:groupmode="layer"
     id="layer1"
     style="display:inline">
    <rect
       style="fill:url(#meshgradient4692);fill-opacity:1;stroke:none;stroke-width:0.31798959"
       id="rect3721"
       width="137.58334"
       height="21.166636"
       x="42.333332"
       y="270.54169" />
    <rect
       style="fill:#ffaaaa;stroke-width:0.56088614"
       id="rect3723"
       width="137.58334"
       height="16.463274"
       x="42.333332"
       y="254.07841" />
    <rect
       style="fill:#ff8080;stroke-width:0.31798956"
       id="rect3725"
       width="137.58331"
       height="15.87499"
       x="42.333336"
       y="238.79169" />
    <rect
       style="fill:#00ff00;stroke-width:0.31798959;fill-opacity:1"
       id="rect3727"
       width="137.58331"
       height="15.875006"
       x="42.333336"
       y="222.91667" />
    <rect
       style="fill:#ff9955;stroke-width:0.27538714"
       id="rect3729"
       width="137.58334"
       height="15.87501"
       x="42.333332"
       y="207.04166" />
    <rect
       style="fill:#ffb380;stroke-width:0.56180042"
       id="rect3731"
       width="137.58331"
       height="16.516987"
       x="42.333336"
       y="190.57301" />
    <rect
       style="fill:url(#meshgradient4706);stroke-width:0.38351288;fill-opacity:1"
       id="rect3733"
       width="137.58331"
       height="15.394184"
       x="42.333336"
       y="175.77249" />
    <rect
       style="fill:#ffb380;stroke-width:0.55170566"
       id="rect3735"
       width="137.58331"
       height="15.928743"
       x="42.333336"
       y="159.84375" />
    <rect
       style="fill:#ff9955;stroke-width:0.31798959"
       id="rect3737"
       width="137.58334"
       height="15.875"
       x="42.333324"
       y="144.07083" />
    <rect
       style="fill:#00ff00;fill-opacity:1;stroke-width:0.38351288"
       id="rect3739"
       width="137.58331"
       height="15.394184"
       x="42.333336"
       y="128.67664" />
    <rect
       style="fill:#ff8080;stroke-width:0.31798956"
       id="rect3741"
       width="137.58331"
       height="15.875"
       x="42.333336"
       y="112.84999" />
    <rect
       style="fill:#ffaaaa;stroke-width:0.55077392"
       id="rect3743"
       width="137.58331"
       height="15.874993"
       x="42.333347"
       y="96.974998" />
    <rect
       style="fill:url(#meshgradient4720);fill-opacity:1;stroke-width:0.38351294"
       id="rect3745"
       width="137.58334"
       height="15.394184"
       x="42.333328"
       y="81.580818" />
    <flowRoot
       xml:space="preserve"
       id="flowRoot3770"
       style="font-style:normal;font-weight:normal;font-size:40px;line-height:1.25;font-family:sans-serif;letter-spacing:0px;word-spacing:0px;fill:#000000;fill-opacity:1;stroke:none"
       transform="matrix(0.26458333,0,0,0.26458333,5.820834,9.0280679)"><flowRegion
         id="flowRegion3772"><rect
           id="rect3774"
           width="360"
           height="80"
           x="160"
           y="1002.5197" /></flowRegion><flowPara
         id="flowPara3776">Ag - 100nm</flowPara></flowRoot>    <flowRoot
       xml:space="preserve"
       id="flowRoot3778"
       style="font-style:normal;font-weight:normal;font-size:40px;line-height:1.25;font-family:sans-serif;letter-spacing:0px;word-spacing:0px;fill:#000000;fill-opacity:1;stroke:none"
       transform="matrix(0.26458333,0,0,0.26458333,4.7571275,-3.1857449)"><flowRegion
         id="flowRegion3780"><rect
           id="rect3782"
           width="360"
           height="60"
           x="160"
           y="922.51971" /></flowRegion><flowPara
         id="flowPara3784">NPB - 40nm</flowPara></flowRoot>    <flowRoot
       xml:space="preserve"
       id="flowRoot3790"
       style="font-style:normal;font-weight:normal;font-size:40px;line-height:1.25;font-family:sans-serif;letter-spacing:0px;word-spacing:0px;fill:#000000;fill-opacity:1;stroke:none"
       transform="matrix(0.26458333,0,0,0.26458333,-131.51272,17.239552)"><flowRegion
         id="flowRegion3792"><rect
           id="rect3794"
           width="320"
           height="180"
           x="680"
           y="782.51971" /></flowRegion><flowPara
         id="flowPara3796">Alq3 - 26nm</flowPara></flowRoot>    <text
       xml:space="preserve"
       style="font-style:normal;font-weight:normal;font-size:10.58333302px;line-height:1.25;font-family:sans-serif;letter-spacing:0px;word-spacing:0px;fill:#000000;fill-opacity:1;stroke:none;stroke-width:0.26458332"
       x="47.012611"
       y="219.39879"
       id="text3800"><tspan
         sodipodi:role="line"
         x="47.012611"
         y="219.39879"
         style="stroke-width:0.26458332"
         id="tspan3802">BPhen - 40nm</tspan></text>
    <text
       xml:space="preserve"
       style="font-style:normal;font-weight:normal;font-size:10.58333302px;line-height:1.25;font-family:sans-serif;letter-spacing:0px;word-spacing:0px;fill:#000000;fill-opacity:1;stroke:none;stroke-width:0.26458332"
       x="47.931252"
       y="186.70857"
       id="text3808"><tspan
         sodipodi:role="line"
         x="47.931252"
         y="186.70857"
         style="stroke-width:0.26458332"
         id="tspan3820">Al - 30nm</tspan></text>
    <text
       xml:space="preserve"
       style="font-style:normal;font-weight:normal;font-size:10.58333302px;line-height:1.25;font-family:sans-serif;letter-spacing:0px;word-spacing:0px;fill:#000000;fill-opacity:1;stroke:none;stroke-width:0.26458332"
       x="47.29464"
       y="202.26935"
       id="text3812"><tspan
         sodipodi:role="line"
         id="tspan3810"
         x="47.29464"
         y="202.26935"
         style="stroke-width:0.26458332">LiF - 1nm</tspan></text>
    <text
       xml:space="preserve"
       style="font-style:normal;font-weight:normal;font-size:10.58333302px;line-height:1.25;font-family:sans-serif;letter-spacing:0px;word-spacing:0px;fill:#000000;fill-opacity:1;stroke:none;stroke-width:0.26458332"
       x="47.149593"
       y="266.13104"
       id="text3816"><tspan
         sodipodi:role="line"
         id="tspan3814"
         x="47.149593"
         y="266.13104"
         style="stroke-width:0.26458332">MoO3 - 1nm</tspan><tspan
         sodipodi:role="line"
         x="47.149593"
         y="279.3602"
         style="stroke-width:0.26458332"
         id="tspan3818" /></text>
    <text
       xml:space="preserve"
       style="font-style:normal;font-weight:normal;font-size:10.58333302px;line-height:1.25;font-family:sans-serif;letter-spacing:0px;word-spacing:0px;display:inline;fill:#000000;fill-opacity:1;stroke:none;stroke-width:0.26458332"
       x="46.674198"
       y="171.49173"
       id="text3812-3"><tspan
         sodipodi:role="line"
         id="tspan3810-6"
         x="46.674198"
         y="171.49173"
         style="stroke-width:0.26458332">LiF - 1nm</tspan></text>
    <text
       xml:space="preserve"
       style="font-style:normal;font-weight:normal;font-size:10.58333302px;line-height:1.25;font-family:sans-serif;letter-spacing:0px;word-spacing:0px;display:inline;fill:#000000;fill-opacity:1;stroke:none;stroke-width:0.26458332"
       x="46.553223"
       y="154.74619"
       id="text3800-7"><tspan
         sodipodi:role="line"
         x="46.553223"
         y="154.74619"
         style="stroke-width:0.26458332"
         id="tspan3802-5">BPhen - 40nm</tspan></text>
    <flowRoot
       xml:space="preserve"
       id="flowRoot3790-3"
       style="font-style:normal;font-weight:normal;font-size:40px;line-height:1.25;font-family:sans-serif;letter-spacing:0px;word-spacing:0px;display:inline;fill:#000000;fill-opacity:1;stroke:none"
       transform="matrix(0.26458333,0,0,0.26458333,-131.18497,-77.196658)"><flowRegion
         id="flowRegion3792-5"><rect
           id="rect3794-6"
           width="320"
           height="180"
           x="680"
           y="782.51971" /></flowRegion><flowPara
         id="flowPara3796-2">Alq3 - 26nm</flowPara></flowRoot>    <flowRoot
       xml:space="preserve"
       id="flowRoot3778-9"
       style="font-style:normal;font-weight:normal;font-size:40px;line-height:1.25;font-family:sans-serif;letter-spacing:0px;word-spacing:0px;display:inline;fill:#000000;fill-opacity:1;stroke:none"
       transform="matrix(0.26458333,0,0,0.26458333,4.9478874,-130.11096)"><flowRegion
         id="flowRegion3780-1"><rect
           id="rect3782-2"
           width="360"
           height="60"
           x="160"
           y="922.51971" /></flowRegion><flowPara
         id="flowPara3784-7">NPB - 40nm</flowPara></flowRoot>    <text
       xml:space="preserve"
       style="font-style:normal;font-weight:normal;font-size:10.58333302px;line-height:1.25;font-family:sans-serif;letter-spacing:0px;word-spacing:0px;display:inline;fill:#000000;fill-opacity:1;stroke:none;stroke-width:0.26458332"
       x="46.934742"
       y="106.93538"
       id="text3816-0"><tspan
         sodipodi:role="line"
         id="tspan3814-9"
         x="46.934742"
         y="106.93538"
         style="stroke-width:0.26458332">MoO3 - 1nm</tspan><tspan
         sodipodi:role="line"
         x="46.934742"
         y="120.16454"
         style="stroke-width:0.26458332"
         id="tspan3818-3" /></text>
    <flowRoot
       xml:space="preserve"
       id="flowRoot3770-6"
       style="font-style:normal;font-weight:normal;font-size:40px;line-height:1.25;font-family:sans-serif;letter-spacing:0px;word-spacing:0px;display:inline;fill:#000000;fill-opacity:1;stroke:none"
       transform="matrix(0.26458333,0,0,0.26458333,5.7214859,-183.62933)"><flowRegion
         id="flowRegion3772-0"><rect
           id="rect3774-6"
           width="360"
           height="80"
           x="160"
           y="1002.5197" /></flowRegion><flowPara
         id="flowPara3776-2">Ag - 30nm</flowPara></flowRoot>    <rect
       style="fill:none;stroke-width:0.26458332"
       id="rect168"
       width="58.208332"
       height="211.66666"
       x="121.70833"
       y="80.041664" />
  </g>
  <g
     inkscape:groupmode="layer"
     id="layer2"
     inkscape:label="wave">
    <path
       id="path670"
       title="sin(t) t"
       d="m 148.16681,275.83332 c 0.14827,-0.20647 0.29654,-0.41294 0.44477,-0.61942 0.14824,-0.20648 0.29644,-0.41295 0.44457,-0.61943 0.14813,-0.20647 0.29621,-0.41295 0.44418,-0.61942 0.14797,-0.20648 0.29585,-0.41296 0.44359,-0.61944 0.14774,-0.20647 0.29536,-0.41295 0.44281,-0.61941 0.14745,-0.20648 0.29473,-0.41295 0.44182,-0.61943 0.14709,-0.20648 0.29398,-0.41295 0.44065,-0.61943 0.14666,-0.20647 0.2931,-0.41295 0.43928,-0.61942 0.14617,-0.20648 0.29209,-0.41296 0.43771,-0.61944 0.14563,-0.20647 0.29096,-0.41294 0.43597,-0.61941 0.145,-0.20647 0.28968,-0.41295 0.434,-0.61943 0.14432,-0.20648 0.28829,-0.41295 0.43187,-0.61943 0.14357,-0.20647 0.28676,-0.41295 0.42953,-0.61942 0.14277,-0.20649 0.28512,-0.41296 0.42702,-0.61943 0.1419,-0.20647 0.28334,-0.41294 0.4243,-0.61942 0.14096,-0.20647 0.28144,-0.41296 0.4214,-0.61943 0.13997,-0.20648 0.27942,-0.41295 0.41833,-0.61943 0.1389,-0.20647 0.27726,-0.41295 0.41505,-0.61943 0.13778,-0.20647 0.27499,-0.41295 0.4116,-0.61941 0.13661,-0.20648 0.2726,-0.41295 0.40797,-0.61943 0.13537,-0.20648 0.27009,-0.41296 0.40416,-0.61943 0.13406,-0.20648 0.26746,-0.41295 0.40016,-0.61943 0.1327,-0.20647 0.26471,-0.41295 0.39599,-0.61943 0.13129,-0.20647 0.26184,-0.41294 0.39165,-0.61941 0.12981,-0.20648 0.25886,-0.41295 0.38713,-0.61943 0.12828,-0.20648 0.25577,-0.41296 0.38246,-0.61943 0.12668,-0.20647 0.25255,-0.41295 0.37758,-0.61942 0.12504,-0.20648 0.24924,-0.41296 0.37257,-0.61944 0.12333,-0.20646 0.2458,-0.41294 0.36738,-0.61941 0.12157,-0.20648 0.24226,-0.41295 0.36203,-0.61944 0.11976,-0.20647 0.23861,-0.41294 0.35652,-0.61942 0.1179,-0.20647 0.23486,-0.41295 0.35085,-0.61942 0.11599,-0.20649 0.23101,-0.41296 0.34503,-0.61944 0.11403,-0.20646 0.22704,-0.41294 0.33905,-0.61941 0.11201,-0.20648 0.223,-0.41296 0.33293,-0.61943 0.10995,-0.20648 0.21884,-0.41295 0.32667,-0.61943 0.10783,-0.20647 0.21458,-0.41295 0.32024,-0.61943 0.10567,-0.20648 0.21024,-0.41295 0.31369,-0.61942 0.10345,-0.20647 0.20579,-0.41294 0.30699,-0.61942 0.1012,-0.20648 0.20127,-0.41296 0.30017,-0.61943 0.0989,-0.20648 0.19664,-0.41295 0.2932,-0.61943 0.0966,-0.20647 0.19193,-0.41295 0.2861,-0.61943 0.0942,-0.20648 0.18714,-0.41294 0.27889,-0.61941 0.0917,-0.20648 0.18226,-0.41295 0.27154,-0.61943 0.0893,-0.20648 0.17731,-0.41296 0.26409,-0.61943 0.0868,-0.20648 0.17227,-0.41295 0.25649,-0.61943 0.0842,-0.20647 0.16717,-0.41296 0.24881,-0.61943 0.0816,-0.20646 0.16199,-0.41294 0.24101,-0.61941 0.0791,-0.20648 0.15673,-0.41295 0.2331,-0.61944 0.0764,-0.20647 0.15141,-0.41295 0.22509,-0.61942 0.0737,-0.20648 0.14602,-0.41295 0.21698,-0.61942 0.071,-0.20649 0.14056,-0.41296 0.20877,-0.61943 0.0682,-0.20647 0.13504,-0.41295 0.20047,-0.61942 0.0654,-0.20648 0.12947,-0.41296 0.19209,-0.61944 0.0627,-0.20647 0.12383,-0.41295 0.18361,-0.61942 0.0598,-0.20647 0.11814,-0.41295 0.17506,-0.61943 0.0569,-0.20648 0.1124,-0.41294 0.16644,-0.61942 0.054,-0.20647 0.1066,-0.41295 0.15772,-0.61942 0.0511,-0.20648 0.10077,-0.41296 0.14895,-0.61944 0.0482,-0.20647 0.0949,-0.41294 0.14011,-0.61942 0.0452,-0.20647 0.089,-0.41295 0.13121,-0.61943 0.0422,-0.20647 0.083,-0.41294 0.12226,-0.61942 0.0393,-0.20647 0.077,-0.41295 0.11323,-0.61942 0.0362,-0.20648 0.071,-0.41296 0.10418,-0.61943 0.0332,-0.20648 0.0649,-0.41295 0.0951,-0.61943 0.0302,-0.20647 0.0588,-0.41296 0.0859,-0.61942 0.0271,-0.20648 0.0526,-0.41295 0.0767,-0.61943 0.024,-0.20647 0.0466,-0.41294 0.0675,-0.61943 0.021,-0.20647 0.0404,-0.41295 0.0582,-0.61942 0.0178,-0.20648 0.0342,-0.41295 0.049,-0.61943 0.0148,-0.20648 0.028,-0.41296 0.0397,-0.61942 0.0117,-0.20648 0.0218,-0.41295 0.0303,-0.61942 0.009,-0.20648 0.0156,-0.41295 0.021,-0.61944 0.006,-0.20647 0.009,-0.41295 0.0117,-0.61942 0.002,-0.20648 0.003,-0.41295 0.002,-0.61943 -7.8e-4,-0.20648 -0.003,-0.41294 -0.007,-0.61942 -0.004,-0.20647 -0.009,-0.41295 -0.0163,-0.61942 -0.007,-0.20648 -0.0156,-0.41296 -0.0257,-0.61944 -0.0101,-0.20647 -0.0218,-0.41295 -0.035,-0.61942 -0.0132,-0.20648 -0.028,-0.41295 -0.0443,-0.61943 -0.0163,-0.20647 -0.0342,-0.41294 -0.0536,-0.61942 -0.0194,-0.20647 -0.0404,-0.41295 -0.0629,-0.61942 -0.0225,-0.20649 -0.0466,-0.41296 -0.0721,-0.61944 -0.0256,-0.20647 -0.0527,-0.41295 -0.0813,-0.61942 -0.0286,-0.20647 -0.0588,-0.41296 -0.0905,-0.61942 -0.0317,-0.20648 -0.0649,-0.41295 -0.0996,-0.61943 -0.0347,-0.20647 -0.071,-0.41295 -0.10872,-0.61942 -0.0378,-0.20649 -0.077,-0.41296 -0.11775,-0.61944 -0.0407,-0.20647 -0.083,-0.41294 -0.12674,-0.61942 -0.0438,-0.20647 -0.089,-0.41295 -0.13566,-0.61942 -0.0467,-0.20648 -0.0949,-0.41295 -0.14455,-0.61943 -0.0497,-0.20647 -0.10077,-0.41295 -0.15334,-0.61943 -0.0526,-0.20647 -0.10661,-0.41295 -0.16209,-0.61942 -0.0554,-0.20648 -0.1124,-0.41295 -0.17075,-0.61943 -0.0583,-0.20647 -0.11814,-0.41295 -0.17935,-0.61942 -0.0612,-0.20648 -0.12383,-0.41295 -0.18786,-0.61943 -0.064,-0.20647 -0.12947,-0.41295 -0.19629,-0.61943 -0.0668,-0.20647 -0.13504,-0.41295 -0.20463,-0.61942 -0.0696,-0.20648 -0.14057,-0.41295 -0.21289,-0.61944 -0.0723,-0.20646 -0.14601,-0.41294 -0.22105,-0.61941 -0.075,-0.20648 -0.1514,-0.41295 -0.2291,-0.61942 -0.0777,-0.20648 -0.15673,-0.41296 -0.23707,-0.61944 -0.0803,-0.20647 -0.16198,-0.41295 -0.24492,-0.61942 -0.0829,-0.20648 -0.16717,-0.41294 -0.25267,-0.61943 -0.0855,-0.20647 -0.17228,-0.41294 -0.26031,-0.61942 -0.088,-0.20647 -0.17731,-0.41295 -0.26783,-0.61942 -0.0905,-0.20649 -0.18226,-0.41296 -0.27522,-0.61944 -0.093,-0.20647 -0.18715,-0.41295 -0.28252,-0.61942 -0.0954,-0.20648 -0.19194,-0.41295 -0.28967,-0.61942 -0.0977,-0.20648 -0.19664,-0.41295 -0.29669,-0.61943 -0.10006,-0.20647 -0.20127,-0.41295 -0.3036,-0.61943 -0.10233,-0.20648 -0.20579,-0.41295 -0.31035,-0.61943 -0.10457,-0.20647 -0.21024,-0.41295 -0.31699,-0.61941 -0.10675,-0.20648 -0.21459,-0.41296 -0.32347,-0.61943 -0.10889,-0.20648 -0.21884,-0.41295 -0.32982,-0.61943 -0.11097,-0.20647 -0.22299,-0.41295 -0.33601,-0.61943 -0.11301,-0.20648 -0.22705,-0.41295 -0.34206,-0.61942 -0.11501,-0.20648 -0.23101,-0.41294 -0.34796,-0.61942 -0.11695,-0.20648 -0.23487,-0.41296 -0.35371,-0.61943 -0.11884,-0.20648 -0.23862,-0.41295 -0.35929,-0.61943 -0.12068,-0.20647 -0.24226,-0.41296 -0.36472,-0.61943 -0.12247,-0.20647 -0.2458,-0.41295 -0.37,-0.61942 -0.12419,-0.20648 -0.24923,-0.41294 -0.3751,-0.61943 -0.12586,-0.20647 -0.25255,-0.41295 -0.38003,-0.61942 -0.12749,-0.20648 -0.25577,-0.41295 -0.38481,-0.61943 -0.12905,-0.20648 -0.25887,-0.41295 -0.38942,-0.61943 -0.13055,-0.20647 -0.26185,-0.41295 -0.39385,-0.61942 -0.132,-0.20647 -0.2647,-0.41295 -0.3981,-0.61943 -0.13338,-0.20647 -0.26746,-0.41295 -0.40218,-0.61942 -0.13472,-0.20647 -0.27009,-0.41295 -0.40608,-0.61943 -0.13599,-0.20648 -0.2726,-0.41295 -0.4098,-0.61943 -0.13721,-0.20647 -0.27501,-0.41295 -0.41336,-0.61941 -0.13835,-0.20648 -0.27727,-0.41296 -0.41671,-0.61944 -0.13944,-0.20647 -0.27942,-0.41294 -0.41989,-0.61942 -0.14046,-0.20647 -0.28143,-0.41295 -0.42288,-0.61943 -0.14143,-0.20648 -0.28333,-0.41295 -0.42568,-0.61943 -0.14234,-0.20647 -0.28511,-0.41294 -0.42829,-0.61941 -0.14319,-0.20649 -0.28677,-0.41296 -0.43072,-0.61943 -0.14397,-0.20648 -0.2883,-0.41295 -0.43297,-0.61943 -0.14467,-0.20647 -0.28969,-0.41296 -0.43501,-0.61943 -0.14532,-0.20648 -0.29095,-0.41295 -0.43686,-0.61943 -0.14591,-0.20646 -0.29209,-0.41293 -0.43852,-0.61942 -0.14643,-0.20647 -0.2931,-0.41295 -0.43999,-0.61942 -0.14688,-0.20648 -0.29398,-0.41295 -0.44126,-0.61943 -0.14728,-0.20648 -0.29473,-0.41296 -0.44234,-0.61943 -0.1476,-0.20648 -0.29536,-0.41295 -0.44322,-0.61941 -0.14787,-0.20648 -0.29585,-0.41296 -0.44391,-0.61944 -0.14806,-0.20647 -0.2962,-0.41295 -0.4444,-0.61942 -0.14819,-0.20648 -0.29643,-0.41295 -0.4447,-0.61943 -0.14825,-0.20648 -0.29653,-0.41296 -0.44479,-0.61943 -0.14825,-0.20647 -0.29649,-0.41295 -0.44469,-0.61941 -0.14819,-0.20648 -0.29634,-0.41296 -0.4444,-0.61944 -0.14806,-0.20647 -0.29604,-0.41295 -0.44391,-0.61942 -0.14786,-0.20648 -0.29562,-0.41295 -0.44322,-0.61943 -0.1476,-0.20648 -0.29506,-0.41295 -0.44234,-0.61943 -0.14727,-0.20647 -0.29437,-0.41294 -0.44126,-0.61941 -0.14689,-0.20649 -0.29356,-0.41296 -0.43999,-0.61944 -0.14643,-0.20647 -0.29261,-0.41295 -0.43852,-0.61942 -0.14591,-0.20647 -0.29154,-0.41296 -0.43686,-0.61943 -0.14532,-0.20648 -0.29033,-0.41295 -0.43501,-0.61943 -0.14467,-0.20646 -0.289,-0.41294 -0.43296,-0.61942 -0.14396,-0.20648 -0.28755,-0.41295 -0.43072,-0.61943 -0.14319,-0.20647 -0.28597,-0.41294 -0.4283,-0.61942 -0.14234,-0.20648 -0.28425,-0.41296 -0.42569,-0.61943 -0.14143,-0.20648 -0.2824,-0.41295 -0.42287,-0.61942 -0.14048,-0.20647 -0.28045,-0.41295 -0.41989,-0.61943 -0.13945,-0.20648 -0.27836,-0.41295 -0.41671,-0.61942 -0.13836,-0.20648 -0.27615,-0.41295 -0.41335,-0.61943 -0.1372,-0.20648 -0.27382,-0.41296 -0.40981,-0.61943 -0.136,-0.20648 -0.27137,-0.41294 -0.40609,-0.61942 -0.13472,-0.20647 -0.26878,-0.41295 -0.40218,-0.61943 -0.13339,-0.20647 -0.26609,-0.41295 -0.3981,-0.61942 -0.132,-0.20648 -0.26329,-0.41295 -0.39384,-0.61944 -0.13055,-0.20647 -0.26036,-0.41295 -0.38941,-0.61942 -0.12905,-0.20647 -0.25733,-0.41294 -0.38481,-0.61941 -0.12749,-0.20649 -0.25417,-0.41296 -0.38005,-0.61944 -0.12586,-0.20647 -0.2509,-0.41295 -0.3751,-0.61942 -0.12418,-0.20648 -0.24753,-0.41296 -0.36998,-0.61944 -0.12247,-0.20647 -0.24405,-0.41295 -0.36473,-0.61941 -0.12068,-0.20647 -0.24045,-0.41295 -0.3593,-0.61943 -0.11884,-0.20648 -0.23674,-0.41295 -0.3537,-0.61943 -0.11696,-0.20647 -0.23295,-0.41295 -0.34796,-0.61942 -0.11501,-0.20648 -0.22904,-0.41296 -0.34206,-0.61943 -0.11302,-0.20648 -0.22503,-0.41294 -0.33602,-0.61942 -0.11097,-0.20647 -0.22092,-0.41295 -0.32981,-0.61943 -0.10889,-0.20648 -0.21672,-0.41295 -0.32347,-0.61943 -0.10675,-0.20647 -0.21242,-0.41295 -0.31698,-0.61942 -0.10457,-0.20648 -0.20803,-0.41296 -0.31036,-0.61943 -0.10233,-0.20648 -0.20354,-0.41294 -0.3036,-0.61942 -0.10006,-0.20647 -0.19895,-0.41296 -0.29669,-0.61943 -0.0977,-0.20648 -0.1943,-0.41295 -0.28967,-0.61943 -0.0954,-0.20647 -0.18955,-0.41294 -0.28251,-0.61943 -0.093,-0.20647 -0.18471,-0.41295 -0.27523,-0.61942 -0.0905,-0.20647 -0.1798,-0.41294 -0.26783,-0.61942 -0.088,-0.20648 -0.1748,-0.41296 -0.26031,-0.61943 -0.0855,-0.20647 -0.16973,-0.41295 -0.25266,-0.61942 -0.0829,-0.20648 -0.16459,-0.41296 -0.24493,-0.61944 -0.0803,-0.20647 -0.15937,-0.41295 -0.23707,-0.61941 -0.0777,-0.20648 -0.15407,-0.41295 -0.22911,-0.61943 -0.075,-0.20648 -0.14871,-0.41295 -0.22104,-0.61943 -0.0723,-0.20647 -0.1433,-0.41295 -0.21289,-0.61942 -0.0696,-0.20648 -0.13781,-0.41296 -0.20463,-0.61944 -0.0668,-0.20647 -0.13226,-0.41294 -0.19629,-0.61941 -0.064,-0.20648 -0.12665,-0.41295 -0.18786,-0.61943 -0.0612,-0.20648 -0.12099,-0.41295 -0.17935,-0.61943 -0.0584,-0.20647 -0.11527,-0.41295 -0.17075,-0.61942 -0.0554,-0.20649 -0.10951,-0.41296 -0.16209,-0.61944 -0.0526,-0.20646 -0.10369,-0.41293 -0.15334,-0.61941 -0.0497,-0.20647 -0.0978,-0.41296 -0.14454,-0.61943 -0.0467,-0.20648 -0.0919,-0.41295 -0.13567,-0.61943 -0.0438,-0.20647 -0.086,-0.41295 -0.12674,-0.61943 -0.0407,-0.20648 -0.08,-0.41295 -0.11775,-0.61941 -0.0378,-0.20648 -0.074,-0.41295 -0.10872,-0.61943 -0.0347,-0.20648 -0.0679,-0.41296 -0.0996,-0.61943 -0.0317,-0.20648 -0.0618,-0.41295 -0.0905,-0.61943 -0.0286,-0.20647 -0.0558,-0.41295 -0.0813,-0.61943 -0.0256,-0.20647 -0.0496,-0.41294 -0.0721,-0.61941 -0.0225,-0.20648 -0.0434,-0.41295 -0.0629,-0.61943 -0.0194,-0.20648 -0.0373,-0.41296 -0.0536,-0.61943 -0.0163,-0.20648 -0.0311,-0.41295 -0.0443,-0.61942 -0.0132,-0.20648 -0.0249,-0.41296 -0.035,-0.61944 -0.0101,-0.20646 -0.0186,-0.41294 -0.0257,-0.61941 -0.007,-0.20648 -0.0125,-0.41295 -0.0163,-0.61944 -0.004,-0.20647 -0.006,-0.41295 -0.007,-0.61942 -7.9e-4,-0.20647 0,-0.41295 0.002,-0.61942 0.002,-0.20649 0.006,-0.41296 0.0117,-0.61944 0.006,-0.20646 0.0125,-0.41294 0.021,-0.61941 0.009,-0.20648 0.0187,-0.41296 0.0303,-0.61944 0.0117,-0.20647 0.0249,-0.41294 0.0397,-0.61942 0.0148,-0.20647 0.0311,-0.41295 0.049,-0.61943 0.0178,-0.20648 0.0373,-0.41295 0.0582,-0.61942 0.021,-0.20647 0.0434,-0.41295 0.0675,-0.61942 0.0241,-0.20648 0.0496,-0.41296 0.0767,-0.61943 0.0271,-0.20648 0.0558,-0.41295 0.0859,-0.61943 0.0302,-0.20647 0.0618,-0.41295 0.0951,-0.61943 0.0332,-0.20648 0.0679,-0.41294 0.10417,-0.61942 0.0362,-0.20647 0.074,-0.41294 0.11325,-0.61942 0.0393,-0.20648 0.08,-0.41296 0.12224,-0.61943 0.0422,-0.20648 0.086,-0.41295 0.13121,-0.61943 0.0452,-0.20647 0.0919,-0.41296 0.14012,-0.61943 0.0482,-0.20647 0.0978,-0.41294 0.14895,-0.61941 0.0511,-0.20648 0.1037,-0.41295 0.15772,-0.61944 0.054,-0.20647 0.10952,-0.41295 0.16644,-0.61942 0.0569,-0.20648 0.11528,-0.41295 0.17505,-0.61943 0.0598,-0.20648 0.121,-0.41296 0.18362,-0.61942 0.0626,-0.20647 0.12666,-0.41295 0.19208,-0.61942 0.0654,-0.20648 0.13227,-0.41295 0.20048,-0.61944 0.0682,-0.20647 0.13781,-0.41295 0.20877,-0.61942 0.071,-0.20648 0.14329,-0.41295 0.21697,-0.61942 0.0737,-0.20649 0.14873,-0.41295 0.22509,-0.61943 0.0764,-0.20647 0.15409,-0.41295 0.2331,-0.61942 0.079,-0.20648 0.15937,-0.41296 0.24101,-0.61944 0.0816,-0.20647 0.16459,-0.41295 0.24881,-0.61942 0.0842,-0.20647 0.16974,-0.41295 0.25651,-0.61943 0.0868,-0.20648 0.1748,-0.41294 0.26408,-0.61942 0.0893,-0.20647 0.1798,-0.41295 0.27154,-0.61942 0.0917,-0.20649 0.18472,-0.41296 0.27889,-0.61944 0.0942,-0.20647 0.18955,-0.41294 0.28611,-0.61942 0.0965,-0.20647 0.1943,-0.41296 0.29319,-0.61943 0.0989,-0.20647 0.19896,-0.41294 0.30016,-0.61942 0.10121,-0.20647 0.20354,-0.41295 0.307,-0.61942 0.10345,-0.20648 0.20803,-0.41296 0.31369,-0.61943 0.10566,-0.20648 0.21242,-0.41295 0.32024,-0.61943 0.10783,-0.20647 0.21673,-0.41296 0.32666,-0.61942 0.10994,-0.20648 0.22093,-0.41295 0.33293,-0.61943 0.11201,-0.20647 0.22504,-0.41294 0.33906,-0.61943 0.11402,-0.20647 0.22904,-0.41295 0.34503,-0.61942 0.11598,-0.20648 0.23295,-0.41295 0.35085,-0.61943 0.11791,-0.20648 0.23676,-0.41294 0.35652,-0.61942 0.11977,-0.20647 0.24045,-0.41295 0.36203,-0.61943 0.12158,-0.20647 0.24405,-0.41295 0.36738,-0.61942 0.12333,-0.20648 0.24753,-0.41296 0.37256,-0.61943 0.12505,-0.20648 0.25092,-0.41295 0.3776,-0.61943 0.12668,-0.20647 0.25417,-0.41294 0.38244,-0.61942 0.12828,-0.20647 0.25733,-0.41295 0.38713,-0.61943 0.12981,-0.20647 0.26038,-0.41295 0.39166,-0.61942 0.13128,-0.20648 0.26329,-0.41296 0.39599,-0.61943 0.13271,-0.20648 0.2661,-0.41295 0.40017,-0.61942 0.13405,-0.20648 0.26879,-0.41295 0.40415,-0.61943 0.13536,-0.20647 0.27136,-0.41295 0.40797,-0.61943 0.1366,-0.20647 0.27381,-0.41295 0.4116,-0.61942 0.13778,-0.20648 0.27615,-0.41296 0.41505,-0.61943 0.13891,-0.20648 0.27836,-0.41294 0.41832,-0.61942 0.13997,-0.20648 0.28045,-0.41296 0.42141,-0.61943 0.14096,-0.206476 0.28241,-0.412951 0.42431,-0.619427 0.14189,-0.206475 0.28424,-0.412949 0.42701,-0.619426 0.14277,-0.206475 0.28595,-0.41295 0.42953,-0.619426 0.14358,-0.206474 0.28755,-0.41295 0.43187,-0.619425 0.14432,-0.206476 0.289,-0.412951 0.43401,-0.619425 0.145,-0.206477 0.29033,-0.412951 0.43596,-0.619427 0.14562,-0.206475 0.29153,-0.41295 0.43771,-0.619426 0.14618,-0.206474 0.29262,-0.412951 0.43929,-0.619426 0.14666,-0.206474 0.29355,-0.41295 0.44064,-0.619425 0.14709,-0.206476 0.29438,-0.412951 0.44183,-0.619426 0.14745,-0.206476 0.29506,-0.41295 0.4428,-0.619427 0.14775,-0.206475 0.29562,-0.412949 0.44359,-0.619425 0.14797,-0.206475 0.29604,-0.412951 0.44418,-0.619426 0.14814,-0.206475 0.29634,-0.412951 0.44457,-0.619425 0.14824,-0.206476 0.2965,-0.412952 0.44477,-0.619426"
       style="opacity:1;fill:none;stroke:#000000;stroke-width:1.39555538;stroke-miterlimit:4;stroke-dasharray:none"
       inkscape:connector-curvature="0" />
    <path
       inkscape:connector-curvature="0"
       id="path670-3"
       title="sin(t) t"
       d="m 148.16667,275.83332 c -0.14827,-0.20647 -0.29654,-0.41295 -0.44478,-0.61942 -0.14823,-0.20648 -0.29643,-0.41295 -0.44457,-0.61943 -0.14813,-0.20648 -0.2962,-0.41295 -0.44417,-0.61943 -0.14798,-0.20647 -0.29585,-0.41295 -0.4436,-0.61943 -0.14773,-0.20648 -0.29535,-0.41295 -0.4428,-0.61941 -0.14745,-0.20648 -0.29473,-0.41295 -0.44182,-0.61944 -0.14709,-0.20647 -0.29399,-0.41295 -0.44065,-0.61942 -0.14667,-0.20647 -0.2931,-0.41295 -0.43928,-0.61943 -0.14618,-0.20648 -0.29209,-0.41295 -0.43771,-0.61943 -0.14563,-0.20647 -0.29096,-0.41294 -0.43597,-0.61942 -0.145,-0.20647 -0.28968,-0.41295 -0.434,-0.61942 -0.14432,-0.20648 -0.28829,-0.41296 -0.43187,-0.61943 -0.14358,-0.20648 -0.28676,-0.41295 -0.42953,-0.61943 -0.14277,-0.20647 -0.28513,-0.41295 -0.42702,-0.61943 -0.1419,-0.20646 -0.28334,-0.41294 -0.4243,-0.61941 -0.14096,-0.20648 -0.28145,-0.41296 -0.42141,-0.61943 -0.13997,-0.20648 -0.27942,-0.41295 -0.41832,-0.61943 -0.13891,-0.20648 -0.27727,-0.41295 -0.41505,-0.61943 -0.13779,-0.20647 -0.275,-0.41295 -0.41161,-0.61941 -0.13661,-0.20649 -0.2726,-0.41296 -0.40797,-0.61943 -0.13536,-0.20648 -0.27009,-0.41295 -0.40415,-0.61943 -0.13406,-0.20648 -0.26746,-0.41296 -0.40016,-0.61943 -0.1327,-0.20647 -0.26471,-0.41295 -0.396,-0.61943 -0.13128,-0.20648 -0.26184,-0.41294 -0.39165,-0.61942 -0.12981,-0.20647 -0.25886,-0.41294 -0.38713,-0.61943 -0.12827,-0.20647 -0.25576,-0.41295 -0.38245,-0.61942 -0.12668,-0.20648 -0.25255,-0.41295 -0.37759,-0.61943 -0.12503,-0.20648 -0.24923,-0.41295 -0.37256,-0.61943 -0.12334,-0.20646 -0.2458,-0.41294 -0.36738,-0.61942 -0.12158,-0.20647 -0.24227,-0.41295 -0.36204,-0.61942 -0.11976,-0.20648 -0.23861,-0.41296 -0.35651,-0.61943 -0.11791,-0.20648 -0.23487,-0.41295 -0.35085,-0.61943 -0.116,-0.20647 -0.23101,-0.41295 -0.34504,-0.61943 -0.11402,-0.20646 -0.22704,-0.41294 -0.33905,-0.61941 -0.11201,-0.20649 -0.22299,-0.41296 -0.33293,-0.61943 -0.10994,-0.20648 -0.21883,-0.41295 -0.32667,-0.61943 -0.10782,-0.20648 -0.21458,-0.41296 -0.32024,-0.61943 -0.10566,-0.20647 -0.21023,-0.41295 -0.31368,-0.61941 -0.10346,-0.20649 -0.2058,-0.41296 -0.307,-0.61944 -0.1012,-0.20647 -0.20126,-0.41294 -0.30016,-0.61943 -0.0989,-0.20647 -0.19664,-0.41295 -0.2932,-0.61942 -0.0966,-0.20648 -0.19193,-0.41295 -0.28611,-0.61943 -0.0942,-0.20648 -0.18714,-0.41294 -0.27888,-0.61942 -0.0918,-0.20647 -0.18227,-0.41295 -0.27155,-0.61943 -0.0893,-0.20647 -0.1773,-0.41295 -0.26408,-0.61942 -0.0868,-0.20648 -0.17228,-0.41296 -0.2565,-0.61943 -0.0842,-0.20648 -0.16717,-0.41295 -0.24881,-0.61943 -0.0816,-0.20646 -0.16199,-0.41294 -0.24101,-0.61942 -0.079,-0.20647 -0.15673,-0.41295 -0.2331,-0.61942 -0.0764,-0.20648 -0.15141,-0.41296 -0.22509,-0.61943 -0.0737,-0.20648 -0.14602,-0.41295 -0.21698,-0.61943 -0.071,-0.20648 -0.14056,-0.41296 -0.20877,-0.61942 -0.0682,-0.20647 -0.13504,-0.41295 -0.20047,-0.61942 -0.0654,-0.20649 -0.12947,-0.41296 -0.19209,-0.61944 -0.0626,-0.20647 -0.12383,-0.41294 -0.18361,-0.61942 -0.0598,-0.20648 -0.11814,-0.41296 -0.17506,-0.61943 -0.0569,-0.20648 -0.1124,-0.41294 -0.16643,-0.61942 -0.054,-0.20648 -0.10661,-0.41295 -0.15772,-0.61943 -0.0511,-0.20647 -0.10077,-0.41295 -0.14896,-0.61943 -0.0482,-0.20647 -0.0949,-0.41295 -0.14011,-0.61942 -0.0452,-0.20648 -0.089,-0.41295 -0.13121,-0.61943 -0.0422,-0.20647 -0.083,-0.41294 -0.12226,-0.61942 -0.0393,-0.20647 -0.077,-0.41295 -0.11323,-0.61943 -0.0362,-0.20647 -0.071,-0.41295 -0.10418,-0.61942 -0.0332,-0.20648 -0.0649,-0.41296 -0.0951,-0.61943 -0.0302,-0.20648 -0.0588,-0.41295 -0.0859,-0.61942 -0.0271,-0.20647 -0.0526,-0.41296 -0.0767,-0.61943 -0.024,-0.20647 -0.0466,-0.41295 -0.0675,-0.61942 -0.021,-0.20649 -0.0404,-0.41296 -0.0582,-0.61944 -0.0178,-0.20647 -0.0342,-0.41294 -0.049,-0.61942 -0.0148,-0.20648 -0.028,-0.41296 -0.0397,-0.61942 -0.0117,-0.20648 -0.0218,-0.41295 -0.0303,-0.61942 -0.009,-0.20649 -0.0156,-0.41296 -0.021,-0.61944 -0.006,-0.20647 -0.009,-0.41295 -0.0117,-0.61943 -0.002,-0.20647 -0.003,-0.41295 -0.002,-0.61942 8e-4,-0.20648 0.003,-0.41294 0.007,-0.61942 0.004,-0.20648 0.009,-0.41295 0.0163,-0.61943 0.007,-0.20647 0.0156,-0.41295 0.0257,-0.61943 0.0101,-0.20647 0.0218,-0.41295 0.035,-0.61942 0.0132,-0.20648 0.028,-0.41296 0.0443,-0.61943 0.0163,-0.20647 0.0342,-0.41294 0.0536,-0.61942 0.0194,-0.20647 0.0404,-0.41296 0.0629,-0.61943 0.0225,-0.20647 0.0466,-0.41295 0.0721,-0.61942 0.0256,-0.20648 0.0527,-0.41296 0.0813,-0.61944 0.0286,-0.20647 0.0588,-0.41294 0.0905,-0.61941 0.0317,-0.20647 0.0649,-0.41296 0.0996,-0.61943 0.0347,-0.20648 0.071,-0.41295 0.10871,-0.61942 0.0378,-0.20649 0.077,-0.41296 0.11775,-0.61944 0.0407,-0.20647 0.083,-0.41295 0.12674,-0.61942 0.0438,-0.20648 0.089,-0.41295 0.13567,-0.61942 0.0467,-0.20648 0.0949,-0.41295 0.14454,-0.61943 0.0497,-0.20648 0.10077,-0.41295 0.15335,-0.61943 0.0526,-0.20647 0.10661,-0.41295 0.16208,-0.61943 0.0554,-0.20647 0.1124,-0.41295 0.17075,-0.61942 0.0583,-0.20647 0.11815,-0.41294 0.17936,-0.61942 0.0612,-0.20648 0.12382,-0.41295 0.18785,-0.61943 0.064,-0.20647 0.12947,-0.41295 0.19629,-0.61943 0.0668,-0.20647 0.13505,-0.41295 0.20464,-0.61942 0.0696,-0.20648 0.14056,-0.41296 0.21288,-0.61944 0.0723,-0.20646 0.14602,-0.41293 0.22105,-0.61941 0.075,-0.20647 0.1514,-0.41296 0.22911,-0.61943 0.0777,-0.20648 0.15673,-0.41295 0.23706,-0.61942 0.0803,-0.20648 0.16199,-0.41296 0.24492,-0.61944 0.0829,-0.20647 0.16717,-0.41295 0.25268,-0.61941 0.0855,-0.20648 0.17227,-0.41296 0.26031,-0.61943 0.088,-0.20648 0.17731,-0.41295 0.26782,-0.61943 0.0905,-0.20648 0.18227,-0.41295 0.27523,-0.61943 0.093,-0.20647 0.18714,-0.41295 0.28251,-0.61942 0.0954,-0.20648 0.19194,-0.41295 0.28967,-0.61942 0.0977,-0.20648 0.19664,-0.41295 0.2967,-0.61943 0.10006,-0.20648 0.20126,-0.41295 0.30359,-0.61943 0.10233,-0.20647 0.2058,-0.41295 0.31036,-0.61943 0.10457,-0.20647 0.21023,-0.41295 0.31699,-0.61941 0.10675,-0.20648 0.21458,-0.41295 0.32346,-0.61944 0.10889,-0.20647 0.21884,-0.41294 0.32982,-0.61942 0.11098,-0.20647 0.223,-0.41296 0.33601,-0.61943 0.11302,-0.20648 0.22705,-0.41295 0.34206,-0.61942 0.11502,-0.20648 0.23101,-0.41296 0.34797,-0.61943 0.11695,-0.20647 0.23486,-0.41295 0.3537,-0.61942 0.11884,-0.20647 0.23862,-0.41296 0.35929,-0.61943 0.12068,-0.20648 0.24227,-0.41295 0.36473,-0.61943 0.12246,-0.20648 0.2458,-0.41295 0.36999,-0.61943 0.1242,-0.20647 0.24924,-0.41294 0.3751,-0.61941 0.12587,-0.20648 0.25256,-0.41296 0.38004,-0.61943 0.12749,-0.20648 0.25577,-0.41295 0.38481,-0.61943 0.12905,-0.20648 0.25887,-0.41295 0.38942,-0.61943 0.13054,-0.20647 0.26184,-0.41295 0.39384,-0.61943 0.132,-0.20646 0.26471,-0.41294 0.3981,-0.61941 0.13339,-0.20648 0.26746,-0.41295 0.40218,-0.61944 0.13472,-0.20647 0.27009,-0.41294 0.40609,-0.61942 0.13599,-0.20647 0.2726,-0.41295 0.4098,-0.61943 0.13721,-0.20648 0.275,-0.41295 0.41336,-0.61941 0.13835,-0.20648 0.27726,-0.41296 0.4167,-0.61944 0.13944,-0.20647 0.27942,-0.41295 0.4199,-0.61942 0.14046,-0.20647 0.28143,-0.41296 0.42287,-0.61943 0.14143,-0.20648 0.28334,-0.41295 0.42569,-0.61943 0.14233,-0.20647 0.28511,-0.41294 0.42829,-0.61942 0.14318,-0.20647 0.28677,-0.41295 0.43072,-0.61942 0.14396,-0.20648 0.28829,-0.41296 0.43297,-0.61943 0.14467,-0.20648 0.28969,-0.41295 0.43501,-0.61943 0.14532,-0.20648 0.29094,-0.41295 0.43686,-0.61943 0.1459,-0.20646 0.29209,-0.41294 0.43851,-0.61941 0.14644,-0.20648 0.29311,-0.41296 0.44,-0.61943 0.14688,-0.20648 0.29398,-0.41295 0.44126,-0.61944 0.14727,-0.20647 0.29473,-0.41294 0.44234,-0.61942 0.1476,-0.20647 0.29535,-0.41295 0.44322,-0.61943 0.14787,-0.20647 0.29584,-0.41294 0.44391,-0.61941 0.14806,-0.20648 0.2962,-0.41295 0.44439,-0.61944 0.1482,-0.20647 0.29644,-0.41295 0.4447,-0.61942 0.14826,-0.20647 0.29654,-0.41295 0.44479,-0.61943 0.14826,-0.20648 0.2965,-0.41295 0.44469,-0.61942 0.1482,-0.20647 0.29634,-0.41295 0.44441,-0.61943 0.14806,-0.20647 0.29604,-0.41295 0.44391,-0.61942 0.14786,-0.20648 0.29562,-0.41296 0.44322,-0.61943 0.1476,-0.20648 0.29506,-0.41295 0.44234,-0.61943 0.14727,-0.20647 0.29437,-0.41294 0.44126,-0.61942 0.14689,-0.20647 0.29356,-0.41295 0.43999,-0.61942 0.14643,-0.20648 0.29261,-0.41296 0.43852,-0.61943 0.14591,-0.20648 0.29154,-0.41295 0.43686,-0.61943 0.14532,-0.20648 0.29033,-0.41295 0.435,-0.61943 0.14468,-0.20646 0.28901,-0.41294 0.43297,-0.61941 0.14396,-0.20649 0.28754,-0.41296 0.43072,-0.61943 0.14319,-0.20648 0.28596,-0.41295 0.4283,-0.61944 0.14234,-0.20647 0.28424,-0.41295 0.42569,-0.61942 0.14143,-0.20647 0.2824,-0.41295 0.42287,-0.61942 0.14048,-0.20648 0.28044,-0.41295 0.41989,-0.61943 0.13945,-0.20647 0.27836,-0.41294 0.41671,-0.61943 0.13836,-0.20647 0.27615,-0.41295 0.41335,-0.61942 0.1372,-0.20648 0.27382,-0.41296 0.40981,-0.61943 0.13599,-0.20648 0.27136,-0.41294 0.40609,-0.61942 0.13472,-0.20647 0.26878,-0.41295 0.40217,-0.61943 0.1334,-0.20647 0.2661,-0.41295 0.3981,-0.61942 0.13201,-0.20648 0.2633,-0.41296 0.39385,-0.61943 0.13055,-0.20648 0.26036,-0.41295 0.38941,-0.61943 0.12905,-0.20647 0.25733,-0.41294 0.38481,-0.61942 0.12749,-0.20647 0.25417,-0.41295 0.38005,-0.61942 0.12586,-0.20649 0.2509,-0.41296 0.37509,-0.61943 0.12419,-0.20648 0.24753,-0.41295 0.36999,-0.61943 0.12247,-0.20648 0.24405,-0.41296 0.36473,-0.61942 0.12068,-0.20647 0.24045,-0.41295 0.35929,-0.61943 0.11885,-0.20648 0.23675,-0.41295 0.35371,-0.61943 0.11696,-0.20647 0.23295,-0.41294 0.34796,-0.61943 0.11501,-0.20647 0.22904,-0.41295 0.34206,-0.61942 0.11302,-0.20648 0.22503,-0.41294 0.33602,-0.61942 0.11097,-0.20648 0.22092,-0.41295 0.32981,-0.61943 0.10889,-0.20647 0.21672,-0.41295 0.32347,-0.61943 0.10675,-0.20647 0.21242,-0.41295 0.31698,-0.61942 0.10457,-0.20648 0.20803,-0.41296 0.31036,-0.61943 0.10233,-0.20648 0.20354,-0.41294 0.3036,-0.61942 0.10006,-0.20647 0.19895,-0.41295 0.29669,-0.61943 0.0977,-0.20647 0.1943,-0.41295 0.28967,-0.61942 0.0954,-0.20649 0.18955,-0.41296 0.28251,-0.61943 0.093,-0.20648 0.18471,-0.41295 0.27524,-0.61943 0.0905,-0.20647 0.17979,-0.41295 0.26782,-0.61942 0.088,-0.20647 0.1748,-0.41295 0.26031,-0.61942 0.0855,-0.20649 0.16973,-0.41296 0.25266,-0.61944 0.083,-0.20647 0.16459,-0.41294 0.24493,-0.61943 0.0803,-0.20647 0.15937,-0.41295 0.23707,-0.61941 0.0777,-0.20648 0.15407,-0.41295 0.22911,-0.61943 0.075,-0.20648 0.14871,-0.41295 0.22104,-0.61943 0.0723,-0.20647 0.1433,-0.41294 0.21289,-0.61943 0.0696,-0.20647 0.13781,-0.41295 0.20463,-0.61942 0.0668,-0.20648 0.13226,-0.41295 0.19629,-0.61942 0.064,-0.20648 0.12665,-0.41295 0.18786,-0.61943 0.0612,-0.20647 0.12099,-0.41295 0.17935,-0.61943 0.0584,-0.20647 0.11527,-0.41295 0.17075,-0.61942 0.0554,-0.20648 0.10951,-0.41296 0.16209,-0.61943 0.0526,-0.20647 0.10369,-0.41294 0.15334,-0.61942 0.0497,-0.20648 0.0978,-0.41296 0.14454,-0.61943 0.0467,-0.20647 0.0919,-0.41295 0.13568,-0.61942 0.0438,-0.20649 0.086,-0.41296 0.12673,-0.61944 0.0407,-0.20647 0.08,-0.41294 0.11776,-0.61941 0.0378,-0.20648 0.074,-0.41296 0.10871,-0.61943 0.0347,-0.20648 0.0679,-0.41295 0.0996,-0.61942 0.0317,-0.20649 0.0618,-0.41296 0.0905,-0.61944 0.0286,-0.20647 0.0558,-0.41294 0.0813,-0.61943 0.0256,-0.20647 0.0496,-0.41294 0.0721,-0.61941 0.0225,-0.20648 0.0434,-0.41295 0.0629,-0.61943 0.0194,-0.20648 0.0373,-0.41295 0.0536,-0.61943 0.0163,-0.20647 0.0311,-0.41295 0.0443,-0.61943 0.0132,-0.20647 0.0249,-0.41295 0.035,-0.61942 0.0101,-0.20647 0.0186,-0.41295 0.0257,-0.61942 0.007,-0.20648 0.0125,-0.41295 0.0163,-0.61943 0.004,-0.20647 0.006,-0.41296 0.007,-0.61943 7.9e-4,-0.20647 0,-0.41295 -0.002,-0.61942 -0.002,-0.20648 -0.006,-0.41296 -0.0117,-0.61944 -0.006,-0.20646 -0.0125,-0.41293 -0.021,-0.61941 -0.009,-0.20648 -0.0187,-0.41296 -0.0303,-0.61943 -0.0117,-0.20648 -0.0249,-0.41295 -0.0397,-0.61942 -0.0148,-0.20649 -0.0311,-0.41296 -0.049,-0.61944 -0.0178,-0.20647 -0.0373,-0.41293 -0.0582,-0.61941 -0.021,-0.20648 -0.0434,-0.41296 -0.0675,-0.61943 -0.0241,-0.20648 -0.0496,-0.41295 -0.0767,-0.61943 -0.0271,-0.20648 -0.0558,-0.41295 -0.0859,-0.61943 -0.0302,-0.20647 -0.0618,-0.41295 -0.0951,-0.61943 -0.0332,-0.20647 -0.0679,-0.41294 -0.10417,-0.61941 -0.0362,-0.20648 -0.074,-0.41295 -0.11324,-0.61943 -0.0393,-0.20648 -0.08,-0.41295 -0.12225,-0.61943 -0.0422,-0.20647 -0.086,-0.41296 -0.13121,-0.61943 -0.0452,-0.20647 -0.0919,-0.41295 -0.14012,-0.61942 -0.0482,-0.20647 -0.0978,-0.41295 -0.14895,-0.61943 -0.0511,-0.20647 -0.1037,-0.41294 -0.15772,-0.61942 -0.054,-0.20647 -0.10951,-0.41296 -0.16643,-0.61943 -0.0569,-0.20648 -0.11529,-0.41295 -0.17506,-0.61942 -0.0598,-0.20649 -0.121,-0.41296 -0.18362,-0.61943 -0.0626,-0.20647 -0.12666,-0.41294 -0.19208,-0.61942 -0.0654,-0.20648 -0.13227,-0.41296 -0.20048,-0.61943 -0.0682,-0.20648 -0.13781,-0.41295 -0.20877,-0.61942 -0.071,-0.20649 -0.14329,-0.41296 -0.21697,-0.61944 -0.0737,-0.20647 -0.14873,-0.41294 -0.22509,-0.61942 -0.0764,-0.20647 -0.15409,-0.41295 -0.2331,-0.61942 -0.079,-0.20648 -0.15937,-0.41295 -0.24101,-0.61943 -0.0816,-0.20648 -0.16459,-0.41295 -0.24881,-0.61943 -0.0842,-0.20647 -0.16974,-0.41295 -0.25651,-0.61943 -0.0868,-0.20646 -0.1748,-0.41294 -0.26408,-0.61941 -0.0893,-0.20648 -0.1798,-0.41296 -0.27154,-0.61944 -0.0917,-0.20647 -0.18472,-0.41294 -0.27889,-0.61942 -0.0942,-0.20647 -0.18955,-0.41296 -0.28611,-0.61943 -0.0966,-0.20648 -0.1943,-0.41295 -0.29319,-0.61941 -0.0989,-0.20648 -0.19896,-0.41296 -0.30016,-0.61944 -0.10121,-0.20647 -0.20354,-0.41294 -0.307,-0.61942 -0.10345,-0.20648 -0.20803,-0.41296 -0.31369,-0.61943 -0.10566,-0.20648 -0.21242,-0.41295 -0.32024,-0.61942 -0.10783,-0.20649 -0.21673,-0.41295 -0.32666,-0.61943 -0.10994,-0.20647 -0.22093,-0.41295 -0.33293,-0.61942 -0.11201,-0.20648 -0.22504,-0.41296 -0.33906,-0.61943 -0.11402,-0.20648 -0.22905,-0.41295 -0.34503,-0.61943 -0.11599,-0.20648 -0.23295,-0.41295 -0.35085,-0.61943 -0.11791,-0.20646 -0.23676,-0.41294 -0.35652,-0.61942 -0.11977,-0.20647 -0.24046,-0.41295 -0.36203,-0.61942 -0.12158,-0.20648 -0.24405,-0.41295 -0.36738,-0.61944 -0.12333,-0.20647 -0.24753,-0.41294 -0.37257,-0.61942 -0.12504,-0.20648 -0.25091,-0.41296 -0.37759,-0.61943 -0.12668,-0.20647 -0.25417,-0.41294 -0.38244,-0.61941 -0.12828,-0.20649 -0.25733,-0.41296 -0.38714,-0.61944 -0.12981,-0.20647 -0.26037,-0.41294 -0.39165,-0.61943 -0.13128,-0.20647 -0.26329,-0.41295 -0.39599,-0.61942 -0.13271,-0.20648 -0.2661,-0.41295 -0.40017,-0.61942 -0.13405,-0.20648 -0.26879,-0.41295 -0.40415,-0.61943 -0.13536,-0.20648 -0.27137,-0.41295 -0.40797,-0.61943 -0.13661,-0.20647 -0.27382,-0.41295 -0.4116,-0.61942 -0.13779,-0.20649 -0.27615,-0.41296 -0.41505,-0.61943 -0.13891,-0.20648 -0.27836,-0.41294 -0.41833,-0.61943 -0.13996,-0.20647 -0.28044,-0.41295 -0.4214,-0.619422 -0.14096,-0.206473 -0.28241,-0.412947 -0.42431,-0.61943 -0.1419,-0.206473 -0.28424,-0.412947 -0.42701,-0.61942 -0.14277,-0.206475 -0.28595,-0.412951 -0.42953,-0.619427 -0.14358,-0.206475 -0.28755,-0.412949 -0.43187,-0.619425 -0.14432,-0.206476 -0.289,-0.412951 -0.43401,-0.619425 -0.145,-0.206476 -0.29033,-0.412952 -0.43596,-0.619427 -0.14562,-0.206474 -0.29154,-0.41295 -0.43771,-0.619426 -0.14618,-0.206476 -0.29262,-0.41295 -0.43929,-0.619425 -0.14666,-0.206475 -0.29355,-0.412951 -0.44064,-0.619426 -0.14709,-0.206475 -0.29438,-0.41295 -0.44183,-0.619427 -0.14745,-0.206475 -0.29506,-0.412949 -0.4428,-0.619424 -0.14775,-0.206476 -0.29562,-0.412952 -0.44359,-0.619426 -0.14797,-0.206476 -0.29605,-0.412951 -0.44418,-0.619427 -0.14814,-0.206475 -0.29634,-0.41295 -0.44458,-0.619425 -0.14823,-0.206475 -0.29649,-0.412951 -0.44476,-0.619426"
       style="opacity:1;fill:none;stroke:#000000;stroke-width:1.39555562;stroke-miterlimit:4;stroke-dasharray:1.39555544, 1.39555544;stroke-dashoffset:0" />
    <rect
       style="opacity:1;fill:none;stroke:#000000;stroke-width:0.99749118;stroke-miterlimit:4;stroke-dasharray:none;stroke-dashoffset:0"
       id="rect5199"
       width="137.58333"
       height="210.1275"
       x="42.333328"
       y="81.580818" />
  </g>
</svg>
